HIERARCHY
ROOT Hips
{
	OFFSET 0.000000 0.000000 0.000000
	CHANNELS 6 Xposition Yposition Zposition Yrotation Zrotation Xrotation
	JOINT Spine
	{
		OFFSET 0.000000 0.000000 -2.106134
		CHANNELS 6 Xposition Yposition Zposition Yrotation Zrotation Xrotation
		JOINT Spine1
		{
			OFFSET 0.000000 0.000003 -4.765754
			CHANNELS 6 Xposition Yposition Zposition Yrotation Zrotation Xrotation
			JOINT Neck
			{
				OFFSET 0.000000 0.000003 -5.279445
				CHANNELS 6 Xposition Yposition Zposition Yrotation Zrotation Xrotation
				JOINT Head
				{
					OFFSET 0.000000 0.513693 -3.981110
					CHANNELS 6 Xposition Yposition Zposition Yrotation Zrotation Xrotation
					End Site
					{
						OFFSET 0.000000 0.000003 -5.136913
					}
				}
			}
			JOINT LeftShoulder
			{
				OFFSET 1.025240 -0.112039 -4.307662
				CHANNELS 6 Xposition Yposition Zposition Yrotation Zrotation Xrotation
				JOINT LeftArm
				{
					OFFSET 2.971458 0.000000 0.000000
					CHANNELS 6 Xposition Yposition Zposition Yrotation Zrotation Xrotation
					JOINT LeftForeArm
					{
						OFFSET 7.705796 0.000000 0.000000
						CHANNELS 6 Xposition Yposition Zposition Yrotation Zrotation Xrotation
						JOINT LeftHand
						{
							OFFSET 6.891853 0.000000 0.000000
							CHANNELS 6 Xposition Yposition Zposition Yrotation Zrotation Xrotation
							End Site
							{
								OFFSET 3.852686 0.000000 0.000000
							}
						}
					}
				}
			}
			JOINT RightShoulder
			{
				OFFSET -1.027336 -0.112039 -4.307662
				CHANNELS 6 Xposition Yposition Zposition Yrotation Zrotation Xrotation
				JOINT RightArm
				{
					OFFSET -2.971458 0.000000 0.000000
					CHANNELS 6 Xposition Yposition Zposition Yrotation Zrotation Xrotation
					JOINT RightForeArm
					{
						OFFSET -7.705796 0.000000 0.000000
						CHANNELS 6 Xposition Yposition Zposition Yrotation Zrotation Xrotation
						JOINT RightHand
						{
							OFFSET -6.891853 0.000000 0.000000
							CHANNELS 6 Xposition Yposition Zposition Yrotation Zrotation Xrotation
							End Site
							{
								OFFSET -3.852686 0.000000 0.000000
							}
						}
					}
				}
			}
		}
	}
	JOINT LeftUpLeg
	{
		OFFSET 2.568456 0.000000 0.000000
		CHANNELS 6 Xposition Yposition Zposition Yrotation Zrotation Xrotation
		JOINT LeftLeg
		{
			OFFSET 0.000000 -0.000006 13.368048
			CHANNELS 6 Xposition Yposition Zposition Yrotation Zrotation Xrotation
			JOINT LeftFoot
			{
				OFFSET 0.000000 -0.000006 10.738913
				CHANNELS 6 Xposition Yposition Zposition Yrotation Zrotation Xrotation
				JOINT LeftToeBase
				{
					OFFSET 0.000000 3.852684 1.669498
					CHANNELS 6 Xposition Yposition Zposition Yrotation Zrotation Xrotation
					End Site
					{
						OFFSET 0.000000 1.027382 0.000000
					}
				}
			}
		}
	}
	JOINT RightUpLeg
	{
		OFFSET -2.568456 0.000000 0.000000
		CHANNELS 6 Xposition Yposition Zposition Yrotation Zrotation Xrotation
		JOINT RightLeg
		{
			OFFSET 0.000000 -0.000006 13.368048
			CHANNELS 6 Xposition Yposition Zposition Yrotation Zrotation Xrotation
			JOINT RightFoot
			{
				OFFSET 0.000000 -0.000006 10.738913
				CHANNELS 6 Xposition Yposition Zposition Yrotation Zrotation Xrotation
				JOINT RightToeBase
				{
					OFFSET 0.000000 3.852684 1.669498
					CHANNELS 6 Xposition Yposition Zposition Yrotation Zrotation Xrotation
					End Site
					{
						OFFSET 0.000000 1.027382 0.000000
					}
				}
			}
		}
	}
}
MOTION
Frames: 7
Frame Time: 0.041667
-1.130810 -2.117564 -23.864227 36.871284 -84.783575 46.352478 0.000000 0.000003 -2.106134 0.156540 6.517469 -8.363292 0.000000 0.000003 -4.765749 13.280253 2.183446 0.194630 0.000003 0.000002 -5.279450 -23.115923 20.902641 25.296459 -0.000001 0.513696 -3.981104 40.723678 30.609916 -6.574615 1.025241 -0.112039 -4.307662 16.152335 9.881728 -2.145298 2.971454 -0.000000 -0.000004 -9.677410 -1.418345 16.005683 7.705795 0.000003 0.000003 12.950742 -6.662446 -25.560969 6.891859 0.000003 -0.000000 -35.002076 17.935689 -20.620227 -1.027333 -0.112039 -4.307668 -6.594554 5.639463 8.359977 -2.971457 0.000000 0.000004 34.186009 -3.991935 27.081198 -7.705796 0.000004 -0.000003 -38.685908 -59.690130 -26.049419 -6.891852 0.000001 -0.000000 5.246832 -4.302549 -3.080391 2.568456 0.000000 -0.000002 8.697986 3.462298 -16.972026 -0.000001 -0.000006 13.368047 -3.367086 -15.381596 29.330376 -0.000001 -0.000004 10.738913 -4.744430 -18.064602 -13.703578 -0.000003 3.852685 1.669496 0.000002 0.000008 -0.000005 -2.568456 0.000000 -0.000002 -10.645461 -3.581731 -21.935275 -0.000000 -0.000008 13.368045 5.715157 1.705248 37.260475 0.000000 -0.000005 10.738918 4.928963 0.298117 -20.717603 0.000000 3.852685 1.669500 -0.000000 -0.000000 -0.000001 
-1.131346 -2.200932 -23.892588 34.891427 -84.634786 44.367475 0.000000 0.000002 -2.106133 0.240980 6.497479 -8.431657 0.000000 0.000003 -4.765754 13.039646 2.171904 0.137890 0.000001 -0.000000 -5.279444 -23.186790 20.841574 25.431760 -0.000003 0.513692 -3.981108 40.879171 30.396661 -7.125063 1.025241 -0.112039 -4.307662 16.207733 9.938618 -2.105968 2.971456 -0.000001 -0.000004 -9.670604 -1.474860 15.856441 7.705806 -0.000003 -0.000009 12.949721 -6.608184 -25.527767 6.891856 0.000001 0.000002 -35.125788 17.938128 -20.558545 -1.027334 -0.112039 -4.307663 -6.808291 5.606817 8.200046 -2.971458 -0.000001 0.000005 33.764815 -3.784930 26.733716 -7.705797 0.000003 -0.000003 -43.102974 -59.782733 -30.789134 -6.891861 -0.000000 -0.000004 8.217577 -4.958368 -4.854387 2.568456 -0.000001 0.000002 8.357673 3.331539 -16.457243 -0.000002 -0.000006 13.368043 -3.347064 -15.373608 28.279756 -0.000001 -0.000005 10.738915 -4.623515 -18.295724 -13.670142 -0.000001 3.852685 1.669498 0.000001 0.000002 -0.000002 -2.568456 -0.000001 0.000003 -10.792388 -3.733040 -21.846123 0.000000 -0.000006 13.368046 5.577928 1.722917 36.877561 0.000000 -0.000007 10.738919 5.191690 0.051869 -20.282646 0.000000 3.852685 1.669499 -0.000000 0.000000 -0.000001 
-1.134248 -2.286342 -23.919989 33.231035 -84.501297 42.698275 -0.000000 0.000000 -2.106134 0.336786 6.492831 -8.467483 0.000000 0.000003 -4.765757 12.770421 2.161478 0.041056 -0.000000 0.000002 -5.279437 -23.250217 20.804481 25.564614 -0.000000 0.513700 -3.981106 40.998378 30.213178 -7.637507 1.025241 -0.112039 -4.307662 16.292380 9.995820 -2.073965 2.971453 0.000000 -0.000002 -9.760657 -1.460511 16.053666 7.705796 0.000000 -0.000002 13.029633 -6.780234 -25.655954 6.891855 0.000000 0.000007 -35.173330 18.029181 -20.673383 -1.027336 -0.112039 -4.307659 -7.048071 5.471777 7.948347 -2.971456 -0.000001 -0.000003 33.321587 -3.418532 26.022544 -7.705793 0.000002 -0.000005 -46.849173 -60.107748 -35.066922 -6.891860 -0.000004 -0.000000 10.787126 -5.317524 -6.422217 2.568456 -0.000000 0.000002 7.986040 3.181019 -15.988967 -0.000001 -0.000006 13.368044 -3.149504 -15.725664 27.295772 -0.000003 -0.000004 10.738917 -4.177249 -18.266837 -13.539185 -0.000000 3.852686 1.669498 -0.000000 0.000002 0.000001 -2.568459 -0.000000 -0.000000 -10.914001 -3.875679 -21.759716 -0.000000 -0.000007 13.368047 5.320235 1.782180 36.511750 -0.000000 -0.000007 10.738920 5.487403 -0.278554 -19.842219 0.000000 3.852683 1.669500 -0.000001 -0.000000 -0.000001 
-1.138464 -2.373554 -23.949068 31.628154 -84.339914 41.088526 0.000000 0.000000 -2.106129 0.406576 6.477950 -8.445438 0.000000 0.000003 -4.765752 12.539489 2.136414 -0.156184 -0.000002 0.000002 -5.279440 -23.365824 20.733446 25.727509 -0.000001 0.513694 -3.981113 41.111564 30.029695 -8.121855 1.025241 -0.112039 -4.307656 16.334454 10.023591 -1.958491 2.971454 -0.000001 0.000001 -9.683319 -1.480052 15.522711 7.705796 0.000002 -0.000010 12.914223 -6.547668 -25.461876 6.891856 0.000001 -0.000007 -35.162463 17.875616 -20.497608 -1.027339 -0.112039 -4.307651 -7.369577 5.400531 7.837099 -2.971459 0.000000 -0.000002 32.888734 -3.245373 25.181564 -7.705797 0.000005 0.000002 -50.428004 -60.330303 -39.202151 -6.891859 0.000002 -0.000002 13.082310 -5.706638 -7.940600 2.568458 -0.000000 0.000007 7.626938 3.032226 -15.551630 -0.000000 -0.000006 13.368039 -2.964439 -16.166947 26.431970 -0.000003 -0.000003 10.738914 -3.662948 -18.127981 -13.390629 0.000002 3.852685 1.669499 0.000000 -0.000002 0.000001 -2.568456 -0.000000 0.000006 -11.088022 -4.120370 -21.678314 -0.000000 -0.000006 13.368048 5.138750 1.845474 36.118710 -0.000000 -0.000008 10.738919 5.779547 -0.474765 -19.398571 -0.000000 3.852685 1.669500 -0.000000 -0.000000 0.000000 
-1.144014 -2.463360 -23.976374 30.383243 -84.201466 39.826983 -0.000000 0.000001 -2.106132 0.505588 6.468091 -8.461566 0.000001 0.000003 -4.765754 12.218635 2.123571 -0.272107 -0.000001 0.000002 -5.279460 -23.424195 20.676313 25.887607 0.000002 0.513695 -3.981102 41.301621 29.820029 -8.664327 1.025239 -0.112039 -4.307669 16.434181 10.078029 -1.918427 2.971450 0.000000 -0.000001 -9.667367 -1.468227 15.412255 7.705797 -0.000003 -0.000001 12.874027 -6.521787 -25.483475 6.891858 0.000004 -0.000005 -35.199240 17.859456 -20.512871 -1.027338 -0.112039 -4.307663 -7.565340 5.197560 7.539398 -2.971458 0.000000 0.000004 32.480609 -2.870687 24.734914 -7.705797 0.000008 -0.000005 -54.545286 -59.912288 -43.469352 -6.891858 0.000003 0.000005 15.419372 -6.300032 -9.524041 2.568456 0.000000 0.000001 7.251139 2.905284 -15.172476 -0.000002 -0.000006 13.368038 -2.833213 -16.300902 25.638155 -0.000000 -0.000003 10.738914 -3.178162 -18.174824 -13.176131 0.000001 3.852684 1.669499 -0.000001 -0.000005 -0.000000 -2.568456 0.000000 0.000001 -11.261963 -4.318220 -21.578405 -0.000000 -0.000005 13.368045 4.993915 1.845867 35.715575 -0.000000 -0.000006 10.738917 6.075350 -0.597512 -18.975488 0.000000 3.852683 1.669499 0.000000 -0.000000 0.000001 
-1.148808 -2.552032 -24.005901 29.259803 -84.107598 38.677568 -0.000000 0.000000 -2.106133 0.612191 6.479849 -8.485561 0.000001 0.000003 -4.765748 11.910129 2.121419 -0.361932 -0.000002 -0.000000 -5.279456 -23.476870 20.653170 26.048257 -0.000001 0.513692 -3.981114 41.489677 29.631611 -9.221922 1.025239 -0.112041 -4.307665 16.549263 10.141642 -1.854415 2.971461 0.000001 0.000000 -9.682440 -1.419737 15.352646 7.705797 -0.000001 -0.000004 12.837163 -6.581950 -25.523148 6.891855 0.000002 -0.000004 -35.209403 17.894045 -20.544227 -1.027336 -0.112041 -4.307668 -7.780145 4.991412 7.194552 -2.971458 0.000001 0.000004 32.179094 -2.543925 24.572468 -7.705793 0.000001 -0.000006 -58.739463 -58.831910 -47.361853 -6.891852 -0.000001 0.000004 17.868799 -7.127461 -11.033649 2.568456 -0.000000 0.000002 6.895540 2.728628 -14.855472 -0.000004 -0.000005 13.368047 -2.703336 -16.230275 25.008017 -0.000003 -0.000005 10.738920 -2.907017 -18.241839 -12.986382 -0.000000 3.852685 1.669498 0.000001 0.000005 -0.000004 -2.568459 -0.000000 0.000004 -11.397193 -4.506073 -21.466513 -0.000000 -0.000005 13.368049 4.780452 1.904331 35.330885 0.000000 -0.000005 10.738917 6.320556 -0.766139 -18.510747 0.000000 3.852683 1.669500 -0.000000 0.000000 -0.000000 
-1.156694 -2.642200 -24.032925 28.224155 -84.025308 37.620634 0.000000 -0.000000 -2.106131 0.729400 6.487373 -8.484195 0.000000 0.000003 -4.765754 11.590019 2.114305 -0.494321 -0.000001 0.000002 -5.279444 -23.559030 20.634309 26.218823 0.000000 0.513693 -3.981112 41.692721 29.472864 -9.739650 1.025239 -0.112039 -4.307656 16.647654 10.200096 -1.775595 2.971457 -0.000002 0.000003 -9.650090 -1.353144 15.174368 7.705803 -0.000003 -0.000008 12.774989 -6.582965 -25.513787 6.891857 0.000000 0.000005 -35.237834 17.853180 -20.539704 -1.027337 -0.112039 -4.307658 -8.041136 4.909435 7.046903 -2.971459 -0.000001 0.000004 31.906723 -2.478640 24.066274 -7.705795 0.000002 0.000002 -62.359702 -57.697436 -50.630225 -6.891861 -0.000001 0.000000 20.231476 -7.986633 -12.335272 2.568456 -0.000000 0.000003 6.547077 2.457370 -14.612833 -0.000001 -0.000008 13.368043 -2.591057 -15.953152 24.466327 -0.000001 -0.000004 10.738917 -2.863817 -18.296219 -12.824915 -0.000001 3.852685 1.669498 0.000001 0.000001 -0.000001 -2.568458 -0.000001 0.000005 -11.541960 -4.716646 -21.364618 -0.000000 -0.000005 13.368047 4.496825 2.104101 34.949853 -0.000000 -0.000005 10.738910 6.575092 -1.037798 -18.044999 0.000000 3.852685 1.669499 -0.000000 -0.000000 -0.000001 
